<svg xmlns="http://www.w3.org/2000/svg" viewBox="0 0 512 512" fill="none">
  <defs>
    <linearGradient id="bg" x1="256" y1="0" x2="256" y2="512" gradientUnits="userSpaceOnUse">
      <stop offset="0" stop-color="#16213c"/>
      <stop offset="0.55" stop-color="#0b1120"/>
      <stop offset="1" stop-color="#070b16"/>
    </linearGradient>
    <linearGradient id="gold" x1="256" y1="64" x2="256" y2="452" gradientUnits="userSpaceOnUse">
      <stop offset="0" stop-color="#fde68a"/>
      <stop offset="0.55" stop-color="#fbbf24"/>
      <stop offset="1" stop-color="#d97706"/>
    </linearGradient>
  </defs>
  <rect x="6" y="6" width="500" height="500" rx="116" fill="url(#bg)"/>
  <rect x="6" y="6" width="500" height="500" rx="116" fill="none" stroke="#fbbf24" stroke-opacity="0.4" stroke-width="10"/>
  <g fill="url(#gold)">
    <path d="M256 72C200 150 110 220 110 296C110 350 150 384 194 384C222 384 244 368 256 344C268 368 290 384 318 384C362 384 402 350 402 296C402 220 312 150 256 72Z"/>
    <path d="M256 314C250 382 236 420 198 446L314 446C276 420 262 382 256 314Z"/>
  </g>
</svg>
